<svg version="1.0" xmlns="http://www.w3.org/2000/svg" width="1353.333" height="1353.333" viewBox="0 0 1015 1015">
    <path d="M764 253.5V317l3.8.1h242.3l4.6-.1V190H764v63.5zM.9 193.5c0 1.1-.1 143.2-.2 315.7L.5 823h126.4l-.1-315.5c0-239.1-.3-315.5-1.1-315.6-.7 0-29-.1-63-.2-61.1-.2-61.7-.2-61.8 1.8zM255 317.4v125.4l63.7-.2 63.8-.1V192H255v125.4zm254.9-123.2c0 1.3-.1 143.3-.2 315.6l-.2 313.2 4 .1c4.1.1 102.5 0 115-.1h7V192.5l-62.8-.3-62.7-.2-.1 2.2zm258.4 500.6l-4.3.3V822l4.8.1c6.1.1 243.4.1 244.8 0 1.6-.1 1.5-127.1 0-127.2-5-.2-242.1-.3-245.3-.1z"/>
</svg>
